<?xml version="1.0" encoding="UTF-8"?>
<svg version="1.1" xmlns="http://www.w3.org/2000/svg" width="512" height="512">
<path d="M0 0 C1.17749817 0.0035273 1.17749817 0.0035273 2.37878418 0.00712585 C11.52556999 0.08645293 20.64022484 0.63582694 29.76367188 1.26147461 C32.68030833 1.45865775 35.5977392 1.63683633 38.515625 1.81445312 C40.40632676 1.94025788 42.29695517 2.06717102 44.1875 2.1953125 C45.04186646 2.24544998 45.89623291 2.29558746 46.77648926 2.34724426 C56.39307851 3.04721198 65.13800462 5.21664954 72.15625 12.14453125 C76.33102436 17.15426049 79.62590469 22.51521489 80.15625 29.14453125 C80.0015625 30.706875 80.0015625 30.706875 79.84375 32.30078125 C79.36112676 37.75442389 79.0057262 42.11192497 82.50390625 46.55078125 C85.04612529 49.38224981 87.79528566 51.98933496 90.56982422 54.59082031 C93.77161327 57.72658293 96.43558166 61.29937132 99.21875 64.8046875 C101.12618867 67.19440267 101.12618867 67.19440267 103.40625 69.328125 C105.15625 71.14453125 105.15625 71.14453125 105.15625 73.14453125 C106.23511475 73.25176514 107.31397949 73.35899902 108.42553711 73.46948242 C114.00957091 74.17178085 119.39879496 75.56460474 124.84765625 76.9453125 C125.95173325 77.22295944 127.05581024 77.50060638 128.19334412 77.78666687 C130.51781545 78.37333897 132.8416227 78.96264784 135.16479492 79.55444336 C138.70807568 80.45432032 142.25518907 81.33780984 145.80273438 82.22070312 C148.06796213 82.79457204 150.33294479 83.36940944 152.59765625 83.9453125 C153.65199356 84.20588943 154.70633087 84.46646637 155.7926178 84.73493958 C164.76548821 87.05088974 171.21812364 89.69513591 176.234375 97.91015625 C178.43566468 103.24548548 178.16862541 110.18745332 176.31640625 115.59765625 C173.52190421 120.52802349 169.4531642 124.09779658 164.15625 126.14453125 C157.50753607 127.55181843 152.36474518 126.64308608 145.84375 124.95703125 C144.97041016 124.74755859 144.09707031 124.53808594 143.19726562 124.32226562 C131.97645197 121.53976805 122.60010974 117.58551051 112.90625 111.26953125 C110.80424139 109.92704423 108.701353 108.58593389 106.59765625 107.24609375 C105.53434082 106.56579102 104.47102539 105.88548828 103.37548828 105.18457031 C97.33447132 101.35636329 91.20458031 97.67446325 85.08300781 93.97705078 C83.31815322 92.9083728 81.55819958 91.83155548 79.8034668 90.74633789 C77.99989524 89.65501326 76.16854749 88.60861669 74.31567383 87.60327148 C66.53337002 83.17788288 62.7647837 77.95721074 58.46875 70.20703125 C57.85064453 69.14162109 57.23253906 68.07621094 56.59570312 66.97851562 C55.09224726 64.37951828 53.61371418 61.76950465 52.15625 59.14453125 C52.45917969 60.03760986 52.76210937 60.93068848 53.07421875 61.85083008 C54.19600409 65.16505856 55.31372354 68.4806005 56.42871094 71.79711914 C56.91211246 73.23223768 57.39712817 74.66681354 57.88378906 76.10083008 C58.58303121 78.16216739 59.27644477 80.22538667 59.96875 82.2890625 C60.38769531 83.53018799 60.80664062 84.77131348 61.23828125 86.05004883 C62.15625 89.14453125 62.15625 89.14453125 62.15625 92.14453125 C63.1153125 92.47517578 63.1153125 92.47517578 64.09375 92.8125 C68.34502252 94.66158664 72.19985702 97.05042697 76.15625 99.45703125 C77.03273193 99.98683594 77.90921387 100.51664062 78.81225586 101.0625 C87.76081623 106.48461641 96.6634799 111.98019029 105.53955078 117.52001953 C108.19385191 119.16787545 110.85948408 120.79607967 113.52734375 122.421875 C115.23716557 123.47495782 116.9468082 124.52833166 118.65625 125.58203125 C119.43943604 126.05382812 120.22262207 126.525625 121.02954102 127.01171875 C126.75379245 130.56648204 130.84054612 134.03468571 133.53125 140.39453125 C134.74024101 147.64847732 134.18098572 154.24843698 129.86328125 160.3828125 C125.60232564 164.78027469 119.87266963 167.33364237 113.78125 167.83203125 C101.59410911 166.94646046 89.21059035 156.33214734 79.18505859 150.03759766 C74.87574906 147.34419236 70.5456094 144.68518425 66.21459961 142.02685547 C62.88737126 139.98381629 59.56466001 137.93357401 56.2421875 135.8828125 C52.57592247 133.62284069 48.89853528 131.38633633 45.1953125 129.1875 C44.46868408 128.75010498 43.74205566 128.31270996 42.9934082 127.86206055 C41.71478717 127.09316111 40.43013971 126.33411766 39.13745117 125.58911133 C30.59802969 120.40894309 26.21864382 113.28082898 23.19140625 103.95703125 C22.86837021 103.0139209 22.54533417 102.07081055 22.21250916 101.09912109 C21.19661964 98.11998997 20.20736601 95.13280946 19.21875 92.14453125 C18.5297446 90.10878193 17.83900528 88.0736186 17.14648438 86.0390625 C15.4629799 81.0808125 13.80118214 76.11570233 12.15625 71.14453125 C12.80164315 76.94426011 13.45922985 82.74243467 14.12768555 88.53955078 C14.3529701 90.50792822 14.5750374 92.47667686 14.79370117 94.44580078 C15.11031852 97.29175081 15.438851 100.13612248 15.76953125 102.98046875 C15.86341629 103.84755463 15.95730133 104.7146405 16.05403137 105.60800171 C17.24360335 116.91301533 17.24360335 116.91301533 23.00390625 126.25390625 C27.9861031 129.97652229 33.39741868 133.11299441 38.74084473 136.28521729 C40.62481991 137.41313246 42.49268926 138.56432264 44.35839844 139.72216797 C50.28052117 143.37602282 56.03740449 146.86894603 62.67504883 149.10107422 C66.28388849 150.99098631 69.07000997 152.52590687 71.15625 156.14453125 C71.63561478 160.25252223 71.3715323 164.248729 71.08569145 168.36751175 C70.37946832 179.57970298 70.91914243 189.21170287 75.21484375 199.74609375 C75.63476089 200.7784465 76.05467804 201.81079926 76.48731995 202.87443542 C77.38269702 205.0393427 78.28449896 207.20160228 79.19223022 209.36135864 C91.35611937 238.94112948 94.38225508 269.02750645 96.84375 300.70703125 C96.97644854 302.41113537 96.97644854 302.41113537 97.11182785 304.14966583 C98.06355233 316.49078325 98.92209656 328.8363915 99.69809628 341.18973351 C100.0350205 346.4887499 100.43620504 351.77519305 100.9621582 357.05938721 C102.62514495 374.92498975 102.62514495 374.92498975 98.5625 381.46875 C93.68372991 387.28261769 88.23513415 392.01600306 80.53125 392.95703125 C72.98741224 393.54500684 66.75602142 391.76226887 60.78125 387.08203125 C53.81514764 380.2012987 52.53748669 371.30532323 51.86352539 361.90600586 C51.77343704 360.8296991 51.68334869 359.75339233 51.5905304 358.64447021 C51.39818405 356.32344206 51.21295674 354.00181491 51.03419685 351.67970085 C50.74943253 347.98889145 50.44449211 344.30022674 50.13438416 340.61146545 C49.36782144 331.44658635 48.63329996 322.27920469 47.90203857 313.1114502 C47.28306762 305.36109657 46.64963368 297.61219516 45.99670219 289.86462593 C45.69855078 286.25829275 45.42129077 282.65075676 45.14479065 279.04270935 C44.12414958 266.46164326 42.34226169 255.0544248 38.15625 243.14453125 C37.39607212 240.81947228 36.63605617 238.49436035 35.8762207 236.16918945 C35.1150215 233.92669559 34.35022976 231.6854183 33.58203125 229.4453125 C33.17212448 228.24061813 32.76221771 227.03592377 32.33988953 225.79472351 C31.26970921 222.65144937 30.1965729 219.50920766 29.12182617 216.36749268 C28.02600436 213.16185542 26.93402563 209.95490977 25.84179688 206.74804688 C23.92571187 201.12353736 22.0065241 195.50009749 20.08442688 189.87763977 C19.09708183 186.97030474 18.12465447 184.05822429 17.15625 181.14453125 C14.18625 180.81453125 11.21625 180.48453125 8.15625 180.14453125 C8.2063623 181.06779709 8.25647461 181.99106293 8.30810547 182.94230652 C8.78250803 191.69417984 9.25352577 200.44622762 9.72085571 209.19848156 C9.96116147 213.69679389 10.20272077 218.19503121 10.44726562 222.69311523 C10.6837422 227.04368163 10.91676828 231.39442102 11.14752197 235.74529457 C11.23561759 237.39531205 11.32490283 239.04526651 11.41546631 240.69515038 C12.99310761 269.48501254 12.99310761 269.48501254 7.15625 282.14453125 C6.85096375 282.81256775 6.54567749 283.48060425 6.23114014 284.16888428 C4.12562936 288.76152392 1.96099191 293.32425244 -0.22720337 297.87799072 C-2.25006958 302.08833791 -4.25658565 306.30648005 -6.265625 310.5234375 C-6.86211601 311.77377777 -6.86211601 311.77377777 -7.47065735 313.04937744 C-10.75159175 319.93236134 -13.97310177 326.84070037 -17.15625 333.76953125 C-17.85161865 335.28196411 -17.85161865 335.28196411 -18.56103516 336.82495117 C-19.49509873 338.85744355 -20.42885474 340.8900773 -21.36230469 342.92285156 C-23.87454701 348.386192 -26.39827459 353.84418947 -28.92684937 359.29998779 C-29.75036517 361.07785479 -30.57211653 362.85653877 -31.39379883 364.63525391 C-33.73564189 369.68727812 -36.09395667 374.73163934 -38.5234375 379.7421875 C-38.89581543 380.51312744 -39.26819336 381.28406738 -39.65185547 382.07836914 C-42.68770594 387.34104889 -47.01745816 390.10226734 -52.65625 392.08203125 C-59.14441961 393.75098203 -64.94899542 393.29150948 -71.15625 390.83203125 C-77.43230087 386.89125512 -81.27844228 383.17778474 -83.84375 376.14453125 C-86.04003577 362.97096642 -80.95391901 353.11015266 -75.21875 341.58203125 C-74.34133854 339.76417344 -73.46686054 337.94489705 -72.59521484 336.12426758 C-70.84853712 332.48427551 -69.08799747 328.85158429 -67.31445312 325.22460938 C-65.13813935 320.76540223 -63.01170827 316.2854676 -60.921875 311.78515625 C-60.62722351 311.15114899 -60.33257202 310.51714172 -60.0289917 309.86392212 C-58.61518866 306.8165198 -57.2082528 303.76604187 -55.80371094 300.71435547 C-53.31132909 295.32552158 -50.78592822 289.97274927 -48.04019165 284.70872498 C-47.09587358 282.89080689 -46.17115212 281.06412882 -45.25146484 279.23364258 C-44.12264061 277.0005741 -42.96008239 274.78397681 -41.75244141 272.5925293 C-38.25354979 265.55579635 -37.47742907 259.78765109 -37.58666992 252.02685547 C-37.59363545 251.02964446 -37.60060099 250.03243345 -37.6077776 249.00500393 C-37.71057555 241.05822708 -38.14151058 233.14312741 -38.6472168 225.21313477 C-41.13728398 186.09941243 -40.11290706 147.96250915 -37.16447437 108.90471613 C-36.58381023 101.18698024 -36.05387715 93.46594654 -35.52435458 85.74456394 C-31.01558973 20.20651672 -31.01558973 20.20651672 -25.84375 12.14453125 C-25.3075 11.27828125 -24.77125 10.41203125 -24.21875 9.51953125 C-17.1130709 2.41385215 -9.79451607 -0.04562704 0 0 Z M50.15625 55.14453125 C51.15625 57.14453125 51.15625 57.14453125 51.15625 57.14453125 Z " fill="#000000" transform="translate(83.84375,107.85546875)"/>
<path d="M0 0 C0.67506592 0.50466797 1.35013184 1.00933594 2.0456543 1.52929688 C3.12327026 2.36557617 3.12327026 2.36557617 4.22265625 3.21875 C5.8094654 4.4085641 7.39810166 5.59594424 8.98828125 6.78125 C10.25961914 7.73451172 10.25961914 7.73451172 11.55664062 8.70703125 C16.4537315 12.31762796 21.46719798 15.76079755 26.47265625 19.21875 C32.43775994 23.34816966 38.39523248 27.48256693 44.28515625 31.71875 C42.57241005 37.85090539 40.59112196 43.86390807 38.41015625 49.84375 C38.17796387 50.49988281 37.94577148 51.15601563 37.70654297 51.83203125 C36.43066642 55.27097758 35.05498526 58.08791187 32.8737793 61.04052734 C29.12891777 66.96989143 28.35484467 73.69870446 27.171875 80.5 C26.9114648 81.92373462 26.64954265 83.34719344 26.38618469 84.77038574 C25.70208744 88.48966367 25.03839344 92.21229367 24.37908936 95.93603516 C23.70071742 99.74608328 23.00282652 103.55254924 22.30664062 107.359375 C20.94717351 114.80915693 19.60927226 122.26259437 18.28515625 129.71875 C18.77886719 130.05648437 19.27257812 130.39421875 19.78125 130.7421875 C20.42191406 131.18820312 21.06257812 131.63421875 21.72265625 132.09375 C22.67978516 132.75503906 22.67978516 132.75503906 23.65625 133.4296875 C25.28515625 134.71875 25.28515625 134.71875 26.28515625 136.71875 C26.35466166 138.25898996 26.36967982 139.80209988 26.34765625 141.34375 C26.33863281 142.16101563 26.32960938 142.97828125 26.3203125 143.8203125 C26.30291016 144.76003906 26.30291016 144.76003906 26.28515625 145.71875 C22.77806798 147.47229414 18.77303876 146.90339284 14.91015625 146.90625 C14.04648437 146.91849609 13.1828125 146.93074219 12.29296875 146.94335938 C11.45765625 146.94529297 10.62234375 146.94722656 9.76171875 146.94921875 C8.99939941 146.95332764 8.23708008 146.95743652 7.45166016 146.96166992 C4.90233594 146.67582615 3.43811179 146.11889948 1.28515625 144.71875 C-1.30771909 138.26084972 -1.17684477 130.36647831 -1.56640625 123.48828125 C-1.63016449 122.45362228 -1.69392273 121.41896332 -1.75961304 120.35295105 C-1.89211411 118.18251627 -2.02135412 116.01188014 -2.14746094 113.84106445 C-2.33993698 110.52964596 -2.54213029 107.21893207 -2.74609375 103.90820312 C-2.8742612 101.78909649 -3.00188416 99.66995684 -3.12890625 97.55078125 C-3.18825348 96.56833939 -3.24760071 95.58589752 -3.30874634 94.57368469 C-3.59531388 89.61183469 -3.77931739 84.68880813 -3.71484375 79.71875 C-4.55474854 79.6762915 -5.39465332 79.63383301 -6.26000977 79.59008789 C-17.4597074 78.9414278 -28.52983718 77.59292793 -39.65234375 76.15625 C-41.51101589 75.91951472 -43.36973962 75.68318405 -45.22851562 75.44726562 C-49.72456498 74.87574369 -54.2198865 74.29879603 -58.71484375 73.71875 C-58.20286345 70.10621916 -57.67995008 66.49835711 -57.109375 62.89453125 C-56.91730469 61.61964844 -56.72523438 60.34476562 -56.52734375 59.03125 C-56.32753906 57.74863281 -56.12773437 56.46601563 -55.921875 55.14453125 C-55.57068573 51.87076817 -55.57068573 51.87076817 -56.2265625 49.32421875 C-58.61308633 46.74977965 -61.34715637 46.96820832 -64.71484375 46.71875 C-64.91078125 47.9046875 -65.10671875 49.090625 -65.30859375 50.3125 C-68.17536933 66.32518029 -73.63883543 81.22425091 -85.71484375 92.71875 C-87.62515741 93.751423 -89.54200837 94.77208405 -91.46484375 95.78125 C-97.12785329 99.50628713 -97.93789312 104.05658998 -99.25683594 110.36108398 C-101.09126613 120.47965241 -101.09126613 120.47965241 -101.71484375 130.71875 C-100.06412979 131.74486949 -98.39514369 132.74183143 -96.71484375 133.71875 C-94.48593419 136.56253116 -93.7635209 138.3049942 -93.33984375 141.90625 C-93.52546875 143.2984375 -93.52546875 143.2984375 -93.71484375 144.71875 C-97.85394319 147.47814963 -101.22378581 147.12337123 -106.08984375 147.15625 C-106.940625 147.18912109 -107.79140625 147.22199219 -108.66796875 147.25585938 C-109.49554688 147.26294922 -110.323125 147.27003906 -111.17578125 147.27734375 C-112.30185791 147.29752563 -112.30185791 147.29752563 -113.45068359 147.31811523 C-116.96264589 146.38843361 -118.42294854 144.48806922 -120.71484375 141.71875 C-121.49920654 138.28605652 -121.49920654 138.28605652 -121.72558594 134.30151367 C-121.77347763 133.57236252 -121.82136932 132.84321136 -121.87071228 132.09196472 C-122.02302218 129.69098138 -122.14239373 127.2895479 -122.26171875 124.88671875 C-122.36217034 123.20896366 -122.46476307 121.53133551 -122.56939697 119.85383606 C-122.83925616 115.44056568 -123.081579 111.0262111 -123.31768799 106.61102295 C-123.60858001 101.26432863 -123.93143753 95.91949076 -124.24968338 90.57436848 C-124.49694709 86.41140299 -124.73952419 82.24834645 -124.96746826 78.08427429 C-125.01047562 77.31384796 -125.05348297 76.54342163 -125.09779358 75.74964905 C-125.21315363 73.67733131 -125.32588934 71.60486795 -125.43841553 69.53239441 C-125.72612536 65.56310728 -126.18801827 61.66245371 -126.71484375 57.71875 C-131.78224159 65.58975971 -135.47181085 73.68844232 -138.73046875 82.44921875 C-139.71484375 84.71875 -139.71484375 84.71875 -141.71484375 86.71875 C-146.27039931 86.16319444 -146.27039931 86.16319444 -147.71484375 84.71875 C-149.80824845 69.58446358 -142.38504174 51.07278461 -133.96484375 38.96875 C-119.30512662 20.13239648 -101.95481632 12.726642 -78.99609375 8.34375 C-77.86717712 8.12777664 -76.7382605 7.91180328 -75.57513428 7.68928528 C-63.62518914 5.44837561 -51.6192723 3.64108602 -39.58447266 1.92358398 C-35.89626839 1.3964489 -32.20983547 0.85796818 -28.5234375 0.31835938 C-26.1550426 -0.02409297 -23.78655642 -0.36591474 -21.41796875 -0.70703125 C-20.32744202 -0.86633621 -19.23691528 -1.02564117 -18.11334229 -1.18977356 C-4.1269946 -3.17097195 -4.1269946 -3.17097195 0 0 Z " fill="#000000" transform="translate(415.71484375,354.28125)"/>
<path d="M0 0 C8.32830051 8.22935041 13.14298337 17.58136774 13.38037109 29.45727539 C13.3491085 42.8021418 10.25147904 53.16783612 1 63.16015625 C-9.39277139 73.08896464 -20.53593888 75.50324935 -34.4375 75.27734375 C-45.85950048 74.8061159 -55.48853688 68.93664832 -63.25 60.8125 C-73.01509025 49.31269311 -74.10634024 36.44113955 -73 22 C-70.7823512 10.44417946 -62.53644153 0.59220883 -53 -6 C-34.91563376 -14.8446597 -15.11392856 -14.02823993 0 0 Z " fill="#000000" transform="translate(150,23)"/>
<path d="M0 0 C8.27852286 1.43318391 15.86863063 4.47504994 23.65209961 7.52960205 C26.20137504 8.52997055 28.7535784 9.52252186 31.30664062 10.51318359 C34.98292999 11.93992503 38.65822327 13.36919223 42.33300781 14.79980469 C50.74518282 18.07038191 59.17542772 21.29375293 67.60549927 24.51785278 C70.53407667 25.63803433 73.46227231 26.75920875 76.39038086 27.88061523 C87.14676554 31.99940301 97.90614229 36.11029608 108.66796875 40.21484375 C113.34117441 41.99732092 118.0143598 43.77985123 122.6875 45.5625 C123.8340506 45.99986481 124.9806012 46.43722961 126.16189575 46.8878479 C148.80033087 55.52548523 171.40757542 64.24280065 194 73 C192.55615498 76.87358585 191.69185273 78.94046903 188 81 C185.08203125 81.73046875 185.08203125 81.73046875 181.8125 82.1875 C180.74644531 82.34605469 179.68039062 82.50460937 178.58203125 82.66796875 C169.62011928 83.49868033 163.32696213 82.46659993 154.91796875 79.109375 C153.85210037 78.6979425 152.78623199 78.28651001 151.68806458 77.86260986 C148.18228395 76.50567198 144.68511719 75.12782767 141.1875 73.75 C138.71476009 72.78886203 136.24156368 71.82900956 133.76757812 70.87109375 C128.66664295 68.89399357 123.56923738 66.90806004 118.47412109 64.91601562 C108.38703908 60.97374161 98.27545108 57.09547934 88.16439819 53.21520996 C84.99602482 51.99847343 81.82855041 50.77942656 78.66137695 49.55957031 C67.06985167 45.09545792 55.47232334 40.64734625 43.8671875 36.21875 C43.23715065 35.97830963 42.6071138 35.73786926 41.95798492 35.49014282 C35.23579771 32.92495603 28.51280337 30.36189306 21.7890625 27.80078125 C20.67242218 27.37510864 19.55578186 26.94943604 18.40530396 26.51086426 C16.3341799 25.72134582 14.26281009 24.93247163 12.19113159 24.14440918 C6.10275207 21.82286474 0.0421229 19.43941426 -6 17 C-5.6920752 16.23921143 -5.38415039 15.47842285 -5.06689453 14.69458008 C-3.89050233 11.72344948 -2.87545263 8.72220632 -1.875 5.6875 C-1.52179688 4.61886719 -1.16859375 3.55023438 -0.8046875 2.44921875 C-0.53914062 1.64097656 -0.27359375 0.83273437 0 0 Z " fill="#000000" transform="translate(228,260)"/>
<path d="M0 0 C-0.03480469 1.18078125 -0.06960938 2.3615625 -0.10546875 3.578125 C-0.13361232 5.13540242 -0.16091187 6.69269525 -0.1875 8.25 C-0.21263672 9.02730469 -0.23777344 9.80460937 -0.26367188 10.60546875 C-0.30671138 13.96255026 -0.29878838 16.37113122 1.15625 19.43359375 C3.55004307 21.46730354 5.65404357 22.02403437 8.6875 22.8125 C17.92984683 25.6888878 22.58336245 30.92408538 27.64453125 38.9296875 C29.88655654 42.35410654 32.28830081 45.24813213 36.08984375 46.91796875 C38.58858305 48.06413915 40.171661 48.92876572 42 51 C43.4917093 58.5246349 42.66961246 67.15911751 39 74 C36.98181696 76.38512541 36.05929319 76.9802356 33 78 C20.50417986 78.92164711 10.2452241 77.24737267 0.25 69.5625 C-1.47855684 68.29213855 -3.20773214 67.02261823 -4.9375 65.75390625 C-5.78570312 65.1211377 -6.63390625 64.48836914 -7.5078125 63.83642578 C-11.18819905 61.12444815 -14.96482428 58.56252248 -18.75 56 C-23.93428906 52.45770086 -29.02545945 48.83454168 -34 45 C-32.14834676 38.91978621 -29.89181994 33.34184892 -26.875 27.75 C-26.48393066 27.02127686 -26.09286133 26.29255371 -25.68994141 25.54174805 C-10.07044501 -3.0211335 -10.07044501 -3.0211335 0 0 Z " fill="#000000" transform="translate(470,289)"/>
<path d="M0 0 C0.69931641 0.08193604 1.39863281 0.16387207 2.11914062 0.24829102 C3.75163945 0.45973653 5.37720491 0.72377956 7 1 C6.45231205 9.73349811 5.01075959 18.2303374 3.41601562 26.8190918 C2.99516005 29.08859996 2.58302027 31.35957403 2.171875 33.63085938 C1.9067547 35.07821754 1.64114803 36.52548672 1.375 37.97265625 C1.1905835 38.98816307 1.1905835 38.98816307 1.00244141 40.02418518 C0.1156759 44.7686482 0.1156759 44.7686482 -1 47 C-0.071875 47.2475 0.85625 47.495 1.8125 47.75 C5.30076171 49.11794577 6.41170091 49.64692414 8 53 C8.40789676 55.85527734 8.28370884 58.06834202 8 61 C3.95301203 63.69799198 0.87298435 63.33137116 -3.875 63.3125 C-5.07962891 63.33666992 -5.07962891 63.33666992 -6.30859375 63.36132812 C-10.91743901 63.36512454 -14.46223765 63.29497474 -18 60 C-18.98084075 55.59047056 -19.25556058 51.16150314 -19.53515625 46.66015625 C-19.57813339 45.97497421 -19.62111053 45.28979218 -19.66539001 44.58384705 C-19.75507 43.14266047 -19.84322671 41.70137838 -19.92993164 40.26000977 C-20.06191718 38.07216106 -20.19953128 35.8847195 -20.33789062 33.69726562 C-21.52722759 14.42984232 -21.52722759 14.42984232 -15.5625 7.0625 C-15.06556641 6.37865234 -14.56863281 5.69480469 -14.05664062 4.99023438 C-9.84770673 -0.30931635 -6.5665216 -0.91393605 0 0 Z " fill="#000000" transform="translate(359,438)"/>
<path d="M0 0 C5.57396008 1.48793125 9.75364251 4.24288301 14.4609375 7.4453125 C15.25150543 7.97518768 16.04207336 8.50506287 16.8565979 9.05099487 C19.36716078 10.73584992 21.87111197 12.43024543 24.375 14.125 C26.08160307 15.27277232 27.78862992 16.41991482 29.49609375 17.56640625 C33.66900523 20.37033416 37.83601596 23.18283325 42 26 C40.99647436 34.43557692 40.99647436 34.43557692 37 38 C33.64196683 38.38640382 31.65386802 38.36374843 28.67578125 36.70703125 C27.89589844 36.08183594 27.11601562 35.45664062 26.3125 34.8125 C21.0804945 30.78234446 15.71641382 27.0190517 10.25 23.3125 C7.89003557 21.70931342 5.53140013 20.1044573 3.1784668 18.4909668 C1.75618815 17.51754354 0.32816443 16.55244708 -1.10620117 15.59692383 C-5.90957598 12.32691762 -5.90957598 12.32691762 -6.8125 9.0625 C-5.6472799 4.67051654 -3.39666819 2.97208467 0 0 Z " fill="#000000" transform="translate(429,340)"/>
<path d="M0 0 C0.33 0 0.66 0 1 0 C1 19.8 1 39.6 1 60 C3.31 60.33 5.62 60.66 8 61 C10.90570902 63.04017868 12.71420131 64.44596965 13.375 68.0390625 C13.4375 70.1875 13.4375 70.1875 13 74 C11 76 11 76 7.9609375 76.1953125 C6.77757812 76.17210937 5.59421875 76.14890625 4.375 76.125 C3.18648438 76.10695313 1.99796875 76.08890625 0.7734375 76.0703125 C-0.14179688 76.04710937 -1.05703125 76.02390625 -2 76 C-2.09796875 75.13117188 -2.1959375 74.26234375 -2.296875 73.3671875 C-3.32604692 65.43546595 -4.30167305 60.69832695 -10 55 C-9.57898669 48.25082635 -8.25643111 41.6812587 -6.93359375 35.05859375 C-6.73524429 34.05031021 -6.53689484 33.04202667 -6.33253479 32.00318909 C-5.70432375 28.81393016 -5.0709979 25.62571252 -4.4375 22.4375 C-4.00812384 20.26243682 -3.57908403 18.08730722 -3.15039062 15.91210938 C-2.10414809 10.60729868 -1.05371538 5.30333111 0 0 Z " fill="#000000" transform="translate(455,425)"/>
</svg>
