<?xml version="1.0" encoding="UTF-8"?>
<svg version="1.1" xmlns="http://www.w3.org/2000/svg" width="512" height="512">
<path d="M0 0 C11.00622662 9.45696305 18.40093914 20.30569381 25.0625 33.125 C35.08119537 51.73114855 51.13605165 65.93718481 67.5 78.8125 C83.16730645 91.37161501 93.22247065 107.57523581 96.1875 127.625 C97.64891252 145.43908685 95.6182719 161.6844649 87.1875 177.625 C86.69636719 178.58792969 86.20523437 179.55085937 85.69921875 180.54296875 C76.0480146 198.34817354 59.62568719 212.10896845 40.08984375 217.9140625 C32.89453615 219.87565047 25.65396594 221.35553356 18.1875 221.625 C17.07246094 221.6765625 15.95742188 221.728125 14.80859375 221.78125 C-3.90399349 222.2495525 -19.58230742 216.86678735 -36.14135742 208.44238281 C-44.87731025 204.02615025 -54.57549094 199.87959223 -64.53149414 202.28076172 C-73.43483137 205.32032323 -81.80512772 209.22336103 -90.27734375 213.29101562 C-110.63507475 222.91445074 -135.08773673 225.50627493 -156.80517578 218.36132812 C-179.79735657 209.9273197 -197.1534486 193.94895069 -207.6875 171.9375 C-215.98549027 152.50875727 -216.3478865 129.99866619 -208.50512695 110.36987305 C-201.34302987 93.62785028 -189.18283343 81.6517843 -174.82421875 70.8984375 C-160.14408511 59.81693584 -147.42511456 44.44481279 -139.5 27.8125 C-128.88204299 6.38056215 -109.92487033 -8.30346576 -87.8125 -16.375 C-57.46398487 -26.19590274 -24.90172732 -19.65743049 0 0 Z " fill="#000000" transform="translate(314.8125,251.375)"/>
<path d="M0 0 C22.70759547 15.54546143 38.1757683 39.98532036 43.4375 66.9375 C46.49210336 85.54281136 43.63267676 103.04423362 33.4375 118.9375 C24.73812959 130.15593271 11.42650512 137.07229932 -2.5625 138.9375 C-18.97763184 140.10863806 -33.03493902 136.75937601 -45.8046875 126.05859375 C-60.77596291 112.07598747 -63.93161657 91.20664531 -64.69140625 71.61328125 C-65.03684731 50.31108246 -63.85920314 20.9732331 -49.5390625 3.94140625 C-35.57882878 -10.21195323 -16.41510123 -9.83959958 0 0 Z " fill="#000000" transform="translate(338.5625,46.0625)"/>
<path d="M0 0 C14.01378583 13.59775156 16.62660675 38.6451447 17.0234375 57.30078125 C17.04820533 59.51769419 17.05859002 61.73387795 17.05810547 63.95092773 C17.06247691 66.1757487 17.0989618 68.39857386 17.13671875 70.62304688 C17.24187491 83.89218337 15.3843342 97.46971601 9 109.3125 C8.4884436 110.29259033 8.4884436 110.29259033 7.96655273 111.29248047 C1.81959452 122.58770797 -6.98526803 130.76772834 -19.0625 135.25 C-33.55395891 139.29808359 -49.80654075 138.2491474 -63.19140625 131.40234375 C-77.19376525 123.16451641 -85.54629901 111.66768656 -90.25 96.25 C-95.55633155 71.59698139 -87.607232 46.57011993 -74.3125 25.875 C-72.12791733 22.72978612 -69.80215297 19.78312655 -67.3125 16.875 C-66.62414062 16.05386719 -65.93578125 15.23273437 -65.2265625 14.38671875 C-48.56448429 -4.8769822 -22.51690848 -18.82506677 0 0 Z " fill="#000000" transform="translate(220.3125,48.125)"/>
<path d="M0 0 C2.83850621 1.82398308 5.43246303 3.8124585 8 6 C8.62390625 6.52851563 9.2478125 7.05703125 9.890625 7.6015625 C23.81706333 20.45238161 33.36504142 39.46736329 41 56.5625 C41.27875977 57.18060547 41.55751953 57.79871094 41.84472656 58.43554688 C47.88159938 72.50395387 48.62700574 90.93431042 43.25390625 105.3125 C38.75897322 114.94649976 32.03732549 123.13139292 22.0625 127.375 C6.51129427 132.80710587 -7.18768505 131.8576277 -22.125 124.875 C-35.7282225 117.89461836 -44.94471216 106.48024429 -50.4375 92.3125 C-53.49819072 82.41291381 -54.34942849 72.87871425 -54.31567383 62.52978516 C-54.31250373 60.50238667 -54.33610419 58.47643932 -54.36132812 56.44921875 C-54.3652418 48.47314777 -53.63660018 41.53845979 -51 34 C-50.62359375 32.91847656 -50.2471875 31.83695313 -49.859375 30.72265625 C-44.44249043 17.73357741 -37.66985577 4.081089 -24.5625 -2.625 C-15.94452355 -5.81684313 -7.77672402 -4.62012017 0 0 Z " fill="#000000" transform="translate(86,158)"/>
<path d="M0 0 C0.65613281 0.60457031 1.31226563 1.20914063 1.98828125 1.83203125 C8.54941565 8.49508618 12.38031837 16.49404502 16 25 C16.27537598 25.6280957 16.55075195 26.25619141 16.83447266 26.90332031 C20.98579523 36.7884132 21.44776575 46.54085437 21.5 57.1875 C21.50644531 58.43418457 21.51289063 59.68086914 21.51953125 60.96533203 C21.25139038 80.5164114 15.67912185 97.58185122 2.4375 112.125 C-8.62664865 122.71650541 -22.17875289 127.51859275 -37.24487305 127.42236328 C-50.40309235 127.0017621 -61.38713019 121.47161753 -70.43359375 111.984375 C-80.46449523 99.27689881 -80.28339549 83.22861409 -78.79199219 67.85595703 C-75.34367368 44.07509869 -56.65947598 15.37324165 -38.51171875 -0.125 C-26.18188824 -9.32922806 -11.67437967 -11.09667841 0 0 Z " fill="#000000" transform="translate(459,161)"/>
</svg>
