<?xml version="1.0" encoding="UTF-8"?>
<svg version="1.1" xmlns="http://www.w3.org/2000/svg" width="512" height="512">
<path d="M0 0 C73.26 0 146.52 0 222 0 C222 68.97 222 137.94 222 209 C148.74 209 75.48 209 0 209 C0 140.03 0 71.06 0 0 Z M54 65 C53.38125 65.51691406 52.7625 66.03382813 52.125 66.56640625 C42.92161735 74.76316892 36.64482789 87.77232257 35.69140625 99.9375 C35.05265361 115.31107505 39.16168772 127.89097157 49.2890625 139.66015625 C54.90416087 145.56937883 60.91198841 150.01107573 68 154 C68.80050781 154.46148437 69.60101563 154.92296875 70.42578125 155.3984375 C89.99423849 165.96732602 116.18655052 167.41626084 137.3828125 161.1875 C138.57648438 160.795625 139.77015625 160.40375 141 160 C142.06992187 159.649375 143.13984375 159.29875 144.2421875 158.9375 C160.18935477 152.97284523 174.1943889 141.16634281 182 126 C187.04462489 114.5675069 188.39403847 100.23718842 184.03125 88.3203125 C175.34117588 68.76764573 160.69570661 56.57729095 141 49 C112.50852562 38.56650234 76.43422362 44.22284972 54 65 Z " fill="#000000" transform="translate(145,241)"/>
<path d="M0 0 C12.93526363 9.99630986 22.3419888 22.70965745 28.0625 38.0625 C28.6503125 39.59777344 28.6503125 39.59777344 29.25 41.1640625 C35.06376062 59.04945108 34.41118012 81.56243308 26.36328125 98.67578125 C24.95263771 102.34853785 24.84834383 103.4256526 26.0625 107.0625 C26.63484375 108.82400391 26.63484375 108.82400391 27.21875 110.62109375 C27.88739886 112.56571455 28.56495291 114.5069873 29.24609375 116.44726562 C35.99498647 136.11489678 33.24667597 158.9256948 24.3125 177.3125 C15.92348615 193.63870625 4.7047626 204.82611637 -10.9375 214.0625 C-11.6696875 214.495625 -12.401875 214.92875 -13.15625 215.375 C-32.26667949 225.73997871 -55.27707793 225.87184517 -75.6953125 220.09765625 C-78.48436323 219.2071762 -81.21914624 218.1498415 -83.9375 217.0625 C-83.9375 142.1525 -83.9375 67.2425 -83.9375 -9.9375 C-53.96028853 -19.92990382 -26.15457515 -18.27537259 0 0 Z " fill="#000000" transform="translate(479.9375,241.9375)"/>
<path d="M0 0 C0 74.91 0 149.82 0 227 C-24.33872219 235.1129074 -46.67152579 236.86619433 -70.25 225.25 C-89.90056515 215.13712518 -104.26165683 199.76834749 -112 179 C-112.391875 177.97648438 -112.78375 176.95296875 -113.1875 175.8984375 C-119.00126062 158.01304892 -118.34868012 135.50006692 -110.30078125 118.38671875 C-108.89013771 114.71396215 -108.78584383 113.6368474 -110 110 C-110.3815625 108.82566406 -110.763125 107.65132813 -111.15625 106.44140625 C-111.82489886 104.49678545 -112.50245291 102.5555127 -113.18359375 100.61523438 C-119.93248647 80.94760322 -117.18417597 58.1368052 -108.25 39.75 C-98.15183931 20.09755252 -82.75989713 5.73519455 -62 -2 C-60.46472656 -2.5878125 -60.46472656 -2.5878125 -58.8984375 -3.1875 C-39.81923111 -9.38931878 -18.39564152 -7.35825661 0 0 Z " fill="#000000" transform="translate(116,232)"/>
<path d="M0 0 C10.21709877 11.44027257 11.84225675 23.77300686 11.76171875 38.48828125 C11.7603038 39.47578369 11.75888885 40.46328613 11.75743103 41.48071289 C11.75187177 44.60826761 11.73932696 47.73574848 11.7265625 50.86328125 C11.72154223 52.99479063 11.71698025 55.12630113 11.71289062 57.2578125 C11.70191572 62.45966025 11.68521862 67.66146547 11.6640625 72.86328125 C6.33724943 71.86662615 1.49625965 70.01999206 -3.5703125 68.1171875 C-11.76766945 65.38756968 -19.32314348 64.47450267 -27.9609375 64.48828125 C-29.54382568 64.49069824 -29.54382568 64.49069824 -31.15869141 64.49316406 C-42.74457275 64.67388893 -52.78282547 67.44183716 -63.3828125 72.12890625 C-65.3359375 72.86328125 -65.3359375 72.86328125 -68.3359375 72.86328125 C-68.38578657 66.67432802 -68.42186765 60.48549453 -68.44580078 54.29638672 C-68.45578986 52.19578004 -68.46938575 50.09518702 -68.48681641 47.99462891 C-68.76844767 13.15518486 -68.76844767 13.15518486 -57.05859375 0.45703125 C-41.02926283 -14.37282593 -16.30649715 -14.95406256 0 0 Z " fill="#000000" transform="translate(284.3359375,57.13671875)"/>
<path d="M0 0 C0.78246094 0.350625 1.56492187 0.70125 2.37109375 1.0625 C15.02341072 7.37769461 23.78642797 18.07119214 28.375 31.3125 C30.18263367 37.07334991 31.14202114 42.58249499 31.125 48.625 C31.12886719 50.00558594 31.12886719 50.00558594 31.1328125 51.4140625 C31 54 31 54 30 58 C-4.32 58 -38.64 58 -74 58 C-76.9779872 46.0880512 -74.34154299 32.28918467 -68.3125 21.625 C-53.38807792 -0.59331257 -25.3630436 -11.9171024 0 0 Z " fill="#000000" transform="translate(278,154)"/>
<path d="M0 0 C0.69738281 0.49242187 1.39476562 0.98484375 2.11328125 1.4921875 C2.69722656 1.88148438 3.28117187 2.27078125 3.8828125 2.671875 C9.34338648 6.680904 12.53048908 11.99105257 13.6328125 18.61328125 C14.04209405 26.6942123 12.37743011 32.32530236 7.11328125 38.4921875 C-2.89930043 48.40774804 -16.05353916 52.67602508 -29.89135742 52.82177734 C-30.81795166 52.8161377 -31.7445459 52.81049805 -32.69921875 52.8046875 C-33.66899658 52.79904785 -34.63877441 52.7934082 -35.63793945 52.78759766 C-49.43025289 52.55408435 -62.08009108 48.79648638 -72.3828125 39.1640625 C-77.980432 32.94125433 -79.80856027 27.08131312 -79.41796875 18.703125 C-78.12487688 10.88752562 -73.9398851 5.97208101 -67.82421875 1.1796875 C-48.25386866 -12.04569273 -19.89123459 -13.08719526 0 0 Z " fill="#000000" transform="translate(288.88671875,323.5078125)"/>
</svg>
